<?xml version="1.0" encoding="UTF-8" standalone="no"?>
<!-- Created with Inkscape (http://www.inkscape.org/) -->

<svg
   version="1.1"
   id="svg1"
   width="542.42303"
   height="564.86694"
   viewBox="0 0 542.42303 564.86694"
   xml:space="preserve"
   xmlns="http://www.w3.org/2000/svg"
   xmlns:svg="http://www.w3.org/2000/svg"><defs
     id="defs1" /><g
     id="g1"
     transform="translate(-20.829723,-32.085541)"><path
       style="display:inline;fill:#368835;fill-opacity:1;stroke-width:2.04451"
       d="m 353.98289,589.66147 c -46.32828,-10.65875 -45.36378,-8.07462 -19.85341,-53.19268 23.43169,-41.44165 26.23457,-42.91713 38.02131,-20.01495 13.97674,27.15737 95.45497,-39.39012 127.15503,-103.85408 C 604.17672,199.33841 362.5493,-16.89128 163.46628,112.0607 -13.34962,226.58965 46.83114,505.72805 255.39656,538.46407 c 19.79001,3.1062 18.37276,6.14752 14.41674,-30.93734 -4.29422,-40.25514 -4.89848,-136.90909 -1.04497,-167.14871 4.32184,-33.91492 -13.151,-60.5941 -56.42588,-86.15631 -14.57701,-8.61056 -23.67897,-10.78997 -10.15463,-2.43147 18.03465,11.14604 56.73476,62.22474 56.73476,74.88191 0,2.32976 -14.42052,0.88542 -29.39339,-2.94401 -57.96124,-14.82398 -99.18047,-62.49183 -99.37506,-114.92192 -0.0534,-14.39288 2.58115,-15.99097 26.3621,-15.99097 61.51715,0 99.7756,29.61213 114.69005,88.77039 4.38905,17.40918 6.11686,21.15004 6.11686,13.2435 0,-55.65825 57.06659,-108.60861 127.41851,-118.22777 37.95833,-5.19 39.39249,-4.14591 37.56366,27.34651 -4.87645,83.97162 -68.86963,160.03315 -140.52988,167.03215 -22.83709,2.23048 19.12215,-82.47921 58.91682,-118.94471 15.61932,-14.31262 13.89414,-14.02733 -6.70009,1.108 -64.54121,47.43328 -76.36919,101.14734 -56.03651,254.4769 8.57953,64.69861 3.93594,75.40709 -31.61558,72.90796 C -31.7419,559.57421 -70.99588,120.80851 218.22949,42.76676 c 316.17203,-85.31278 486.71063,363.93328 194.71862,512.94313 -18.73531,9.56102 -18.73531,9.56102 -13.82039,20.11699 11.32816,24.32998 6.67337,25.75643 -45.14483,13.83459 z"
       id="path2-6" /></g></svg>
